#!OML:ASF X:\für Bonn\!DataBase\2005_08_11_Bastian_Final\c3d\Bastian.ASF
:FULLY-SPECIFIED
:DEGREES
83
root -1.39926 8.98414 2.13307 162.19 -4.30624 -171.709
lowerback 34.7002 -0.248795 5.06235
upperback 7.70765 -0.845927 2.25262
thorax -8.9732 -1.56125 0.189675
lowerneck -10.8132 -5.3684 -1.40132
upperneck -9.69503 -7.95922 10.4481
head -0.735922 -4.56724 3.38979
rclavicle -9.93923e-017 -3.4191e-014
rhumerus 68.8961 10.0682 13.8685
rradius 39.8557
rwrist -67.3877
rhand -48.818 -9.06557
rfingers 7.12502
rthumb -21.4542 -37.8976
lclavicle -9.93923e-017 -3.4191e-014
lhumerus 73.4584 -16.7792 -39.9513
lradius 32.7758
lwrist 38.8014
lhand -48.0229 26.2795
lfingers 7.12502
lthumb -20.6904 55.1966
rfemur -47.6549 -8.67434 33.5529
rtibia 135.886
rfoot -50.9954 -14.7887
rtoes -5.81755
lfemur -47.7232 13.6176 -6.78055
ltibia 140.459
lfoot -53.7439 -13.0047
ltoes -16.2605
84
root -1.405 9.0353 2.14259 162.318 -4.39026 -171.779
lowerback 34.66 -0.264882 5.00962
upperback 7.68157 -0.8738 2.22548
thorax -8.98982 -1.56702 0.198018
lowerneck -10.798 -5.36888 -1.40856
upperneck -9.85955 -7.96782 10.4684
head -0.790592 -4.58569 3.40374
rclavicle -1.63003e-014 5.1684e-015
rhumerus 68.9647 10.1577 14.3009
rradius 39.9384
rwrist -67.4953
rhand -48.9317 -9.33244
rfingers 7.12502
rthumb -21.5634 -38.152
lclavicle -1.63003e-014 5.1684e-015
lhumerus 73.5909 -16.8528 -40.5536
lradius 32.976
lwrist 39.4655
lhand -48.1103 25.9698
lfingers 7.12502
lthumb -20.7744 54.8777
rfemur -47.6394 -8.0017 33.6527
rtibia 135.46
rfoot -50.748 -15.3714
rtoes -6.31224
lfemur -47.8288 13.135 -7.17668
ltibia 139.988
lfoot -53.3996 -12.8884
ltoes -16.0862
85
root -1.41099 9.10472 2.15014 162.471 -4.48785 -171.84
lowerback 34.5959 -0.294383 4.98931
upperback 7.64024 -0.902615 2.17273
thorax -9.01436 -1.57018 0.161797
lowerneck -10.7715 -5.36362 -1.40476
upperneck -10.0423 -7.97153 10.5387
head -0.851578 -4.60522 3.43425
rclavicle -9.93923e-017 2.06736e-014
rhumerus 68.9908 10.2555 14.6842
rradius 39.9835
rwrist -67.5352
rhand -49.0115 -9.63673
rfingers 7.12502
rthumb -21.6401 -38.4474
lclavicle -9.93923e-017 2.06736e-014
lhumerus 73.8035 -16.9736 -40.9366
lradius 33.0571
lwrist 39.6315
lhand -48.1157 25.8927
lfingers 7.12502
lthumb -20.7796 54.8
rfemur -47.5631 -7.31587 33.7489
rtibia 134.863
rfoot -50.4507 -16.0266
rtoes -7.03913
lfemur -47.8707 12.527 -7.58355
ltibia 139.353
lfoot -53.0117 -12.7667
ltoes -15.8871
86
root -1.41655 9.19631 2.15685 162.653 -4.59895 -171.92
lowerback 34.5036 -0.31499 4.91446
upperback 7.60501 -0.938926 2.14538
thorax -9.02244 -1.57615 0.183083
lowerneck -10.833 -5.35734 -1.47668
upperneck -10.1721 -7.96961 10.6214
head -0.877312 -4.61536 3.47801
rclavicle 1.59028e-015 -1.43125e-014
rhumerus 69.0454 10.2895 14.9997
rradius 39.9946
rwrist -67.4041
rhand -49.066 -10.0029
rfingers 7.12502
rthumb -21.6924 -38.8076
lclavicle 1.59028e-015 -1.43125e-014
lhumerus 73.9902 -17.1841 -40.951
lradius 32.9684
lwrist 39.2651
lhand -48.0561 25.9487
lfingers 7.12502
lthumb -20.7223 54.8623
rfemur -47.4198 -6.69383 33.7539
rtibia 134.098
rfoot -50.1055 -16.4273
rtoes -7.42464
lfemur -47.855 11.7808 -8.06728
ltibia 138.543
lfoot -52.5678 -12.527
ltoes -15.8513
87
root -1.42342 9.3086 2.16416 162.816 -4.69509 -171.958
lowerback 34.4232 -0.352875 4.89513
upperback 7.57194 -0.980069 2.11984
thorax -9.0315 -1.5865 0.17925
lowerneck -10.8802 -5.34657 -1.57682
upperneck -10.3182 -7.95909 10.7507
head -0.908043 -4.62285 3.54454
rclavicle -1.10325e-014 -2.82274e-014
rhumerus 69.1115 10.2997 15.3118
rradius 39.9794
rwrist -67.3052
rhand -49.1107 -10.2372
rfingers 7.12502
rthumb -21.7353 -39.0369
lclavicle -1.10325e-014 -2.82274e-014
lhumerus 74.1664 -17.3654 -41.0743
lradius 32.8736
lwrist 38.8684
lhand -47.9432 26.0508
lfingers 7.12502
lthumb -20.6138 54.9763
rfemur -47.1548 -6.16619 33.7575
rtibia 133.138
rfoot -49.6304 -16.9488
rtoes -8.11237
lfemur -47.7258 10.9311 -8.5056
ltibia 137.548
lfoot -52.0191 -12.355
ltoes -15.5604
88
root -1.42997 9.43685 2.17168 163.035 -4.80104 -171.979
lowerback 34.3003 -0.40527 4.89405
upperback 7.50263 -1.01997 2.09213
thorax -9.06474 -1.59106 0.162064
lowerneck -10.9052 -5.33921 -1.67768
upperneck -10.4508 -7.94986 10.8668
head -0.938632 -4.62919 3.60721
rclavicle -9.93923e-017 2.78299e-015
rhumerus 69.1572 10.3386 15.6025
rradius 39.9823
rwrist -67.2678
rhand -49.1929 -10.4087
rfingers 7.12502
rthumb -21.8143 -39.1992
lclavicle -9.93923e-017 2.78299e-015
lhumerus 74.3411 -17.5331 -41.1763
lradius 32.7819
lwrist 38.3607
lhand -47.7984 26.2719
lfingers 7.12502
lthumb -20.4746 55.2123
rfemur -46.9107 -5.70227 33.7243
rtibia 132.039
rfoot -49.0913 -17.2831
rtoes -8.48876
lfemur -47.6116 10.0587 -8.94405
ltibia 136.42
lfoot -51.4535 -12.0394
ltoes -15.6319
89
root -1.43667 9.57804 2.17972 163.26 -4.89478 -172.013
lowerback 34.1639 -0.4436 4.88596
upperback 7.44815 -1.04979 2.05536
thorax -9.07629 -1.59156 0.134419
lowerneck -10.9894 -5.32882 -1.76851
upperneck -10.5635 -7.94223 10.9946
head -0.952648 -4.63601 3.66934
rclavicle -9.93923e-016 2.74323e-014
rhumerus 69.1759 10.3494 15.7924
rradius 39.9666
rwrist -67.2209
rhand -49.2939 -10.481
rfingers 7.12502
rthumb -21.9112 -39.2603
lclavicle -9.93923e-016 2.74323e-014
lhumerus 74.4615 -17.6315 -41.1963
lradius 32.6854
lwrist 37.8109
lhand -47.6531 26.4495
lfingers 7.12502
lthumb -20.3351 55.4049
rfemur -46.6187 -5.22592 33.6728
rtibia 130.811
rfoot -48.4936 -17.6132
rtoes -8.93121
lfemur -47.4279 9.18723 -9.35846
ltibia 135.168
lfoot -50.8039 -11.8317
ltoes -15.4095
